<?xml version="1.0" encoding="utf-8"?>
<!-- Generated by IcoMoon.io -->
<!DOCTYPE svg PUBLIC "-//W3C//DTD SVG 1.1//EN" "http://www.w3.org/Graphics/SVG/1.1/DTD/svg11.dtd">
<svg version="1.1" xmlns="http://www.w3.org/2000/svg" xmlns:xlink="http://www.w3.org/1999/xlink" width="24" height="24" viewBox="0 0 24 24">
<path fill="#444444" d="M22 4v-2h-2v-2h-16v2h-2v2h-2v16h2v2h2v2h16v-2h2v-2h2v-16h-2zM22 18h-2v2h-2v2h-12v-2h-2v-2h-2v-12h2v-2h2v-2h12v2h2v2h2v12z"></path>
<path fill="#444444" d="M14 6v2h-4v-2h-6v6h6v-2h4v2h6v-6z"></path>
<path fill="#444444" d="M14 14v2h-6v2h8v-4z"></path>
</svg>
